<?xml version="1.0" encoding="UTF-8"?>
<svg width="200" height="200" viewBox="0 0 200 200" xmlns="http://www.w3.org/2000/svg">
  <!-- 背景圆形 -->
  <circle cx="100" cy="100" r="90" fill="#4a90e2" />
  <circle cx="100" cy="100" r="80" fill="white" />
  
  <!-- 购物袋图形 -->
  <path d="M70 75 L60 130 L140 130 L130 75 Z" fill="#4a90e2" />
  <path d="M75 65 C75 55, 85 45, 100 45 C115 45, 125 55, 125 65 L125 75 L75 75 L75 65 Z" fill="#4a90e2" />
  
  <!-- 智能元素：连接点和线条 -->
  <circle cx="85" cy="95" r="5" fill="#6ac1e5" />
  <circle cx="115" cy="95" r="5" fill="#6ac1e5" />
  <circle cx="100" cy="110" r="5" fill="#6ac1e5" />
  
  <line x1="85" y1="95" x2="115" y2="95" stroke="#6ac1e5" stroke-width="2" />
  <line x1="85" y1="95" x2="100" y2="110" stroke="#6ac1e5" stroke-width="2" />
  <line x1="115" y1="95" x2="100" y2="110" stroke="#6ac1e5" stroke-width="2" />
  
  <!-- 文字：SMART -->
  <text x="60" y="155" font-family="Arial, sans-serif" font-weight="bold" font-size="18" fill="#4a90e2">SMART</text>
  
  <!-- 文字：BUY -->
  <text x="120" y="155" font-family="Arial, sans-serif" font-weight="bold" font-size="18" fill="#6ac1e5">BUY</text>
</svg> 